<svg width="89" height="119" viewBox="0 0 89 119" fill="none" xmlns="http://www.w3.org/2000/svg">
<ellipse cx="44.5" cy="78.5" rx="44.5" ry="40.5" fill="#8F06FB"/>
<ellipse cx="44.5" cy="78.5" rx="44.5" ry="40.5" fill="url(#paint0_linear)"/>
<path d="M52.8331 73V91.2107L45 103.846L68.2616 98.8656L52.8331 73Z" fill="#ED6262"/>
<rect x="51.5423" y="95.799" width="6.17887" height="6.16913" fill="#9E8686" fill-opacity="0.8"/>
<rect x="54.8135" y="83.9971" width="6.54234" height="5.90091" fill="#473C3C" fill-opacity="0.65"/>
<path d="M37.9254 78V94.1167L44.3409 104.978L20.3524 103.226L37.9254 78Z" fill="#ED6262"/>
<rect x="23.1336" y="89.6496" width="10.4298" height="8.37952" fill="#806565" fill-opacity="0.65"/>
<rect x="30.7822" y="95.9853" width="8.34385" height="8.99266" fill="#453838" fill-opacity="0.65"/>
<path d="M53 76.8793C53 79.3551 57.6316 78.5172 57.6316 83C59.9105 83 61 79.9585 61 77.4828C61 75.007 59.1526 73 56.8737 73C54.5948 73 53 74.4036 53 76.8793Z" fill="#1C1514"/>
<rect x="37" y="84" width="17" height="12" rx="6" fill="#B08871"/>
<rect x="36.7846" y="64" width="16.1859" height="29" rx="8.09296" fill="#DBB39C"/>
<rect x="36.7846" y="67" width="16.1859" height="14" rx="7" fill="#B08871"/>
<ellipse cx="45.1466" cy="40.3207" rx="36.5075" ry="35.4725" fill="#DBB39C"/>
<rect x="6" y="40.1988" width="4.98496" height="11.4585" rx="2.49248" fill="#DBB39C"/>
<rect x="79.015" y="40.1988" width="4.98496" height="11.4585" rx="2.49248" fill="#DBB39C"/>
<ellipse cx="45" cy="56.2894" rx="3.81203" ry="1.21899" fill="#B08871"/>
<path d="M49.165 5.91139C44.1071 14.9768 11.2411 20.7309 8.04313 43.3489C8.04313 43.3489 9.68301 51.2984 7.80553 39.6662C0.793316 26.0954 15.5903 6.94254 28.4336 2.59751C42.8622 -2.28386 58.8515 0.221292 49.165 5.91139Z" fill="#1C1514"/>
<path d="M44.5534 10.172C47.4287 20.8798 77.2185 17.7866 80.4164 40.4046C87.4286 26.8338 69.6579 5.04688 56.3965 1.84527C42.8622 -1.42222 34.867 4.4819 44.5534 10.172Z" fill="#1C1514"/>
<path d="M50.9024 72.2249C50.2125 73.5049 47.7979 73.9311 45.2683 76C42.3937 74.2355 41.2439 73.6875 39.6341 72.2249C39.6341 70.5771 42.0931 70.0329 45.2683 70.0329C48.4434 70.0329 50.9024 70.704 50.9024 72.2249Z" fill="#1C1514"/>
<path d="M56 65.5892C56 67.438 50.6214 63.2805 44.8465 63.2805C39.0716 63.2805 33.4606 67.8979 34.0415 65.5892C34.6224 63.2805 39.0716 61.0822 44.8465 61.0822C50.6214 61.0822 54.9544 63.2805 56 65.5892Z" fill="#1C1514"/>
<rect x="8" y="32" width="34.8875" height="21.8025" rx="10.9012" stroke="black" stroke-width="3" stroke-linejoin="round"/>
<path d="M46.1125 42.9012C46.1125 36.8806 50.9931 32 57.0137 32H70.0988C76.1194 32 81 36.8806 81 42.9012V42.9012C81 48.9218 76.1194 53.8025 70.0988 53.8025H57.0137C50.9931 53.8025 46.1125 48.9218 46.1125 42.9012V42.9012Z" stroke="black" stroke-width="3" stroke-linejoin="round"/>
<path d="M35 45.3728C35 47.1666 30.8438 43.1329 26.3814 43.1329C21.9189 43.1329 17.5832 47.6128 18.0321 45.3728C18.481 43.1329 21.9189 41 26.3814 41C30.8438 41 34.192 43.1329 35 45.3728Z" fill="#621B04"/>
<path d="M71 45.3728C71 47.1666 66.8438 43.1329 62.3814 43.1329C57.9189 43.1329 53.5832 47.6128 54.0321 45.3728C54.481 43.1329 57.9189 41 62.3814 41C66.8438 41 70.192 43.1329 71 45.3728Z" fill="#621B04"/>
<defs>
<linearGradient id="paint0_linear" x1="101.63" y1="54.9024" x2="17.38" y2="112.594" gradientUnits="userSpaceOnUse">
<stop stop-color="#0B76F3"/>
<stop offset="1" stop-color="white" stop-opacity="0"/>
</linearGradient>
</defs>
</svg>
